<svg width="34" height="30" viewBox="0 0 34 30" fill="none" xmlns="http://www.w3.org/2000/svg">
<path d="M2.29297 1.875V28.125H31.6565V1.875H2.29297ZM18.273 22.3472C18.273 24.9019 16.5951 26.0681 14.1506 26.0681C11.942 26.0681 10.6637 25.0491 10.0082 23.8125L12.2566 22.5994C12.6897 23.2847 13.083 23.865 14.0331 23.865C14.9371 23.865 15.5139 23.5481 15.5139 22.3125V13.9275H18.273V22.3472ZM24.8001 26.0681C22.2371 26.0681 20.5791 24.9788 19.7726 23.5481L22.021 22.3884C22.6115 23.25 23.3843 23.8884 24.7414 23.8884C25.8813 23.8884 26.6164 23.3784 26.6164 22.6697C26.6164 21.8259 25.8687 21.5269 24.604 21.0291L23.916 20.7656C21.9235 20.01 20.6064 19.0547 20.6064 17.0447C20.6064 15.1931 22.1857 13.7869 24.6438 13.7869C26.4004 13.7869 27.6588 14.3316 28.5639 15.7613L26.414 16.9922C25.9421 16.2366 25.4304 15.9375 24.6375 15.9375C23.8321 15.9375 23.3204 16.395 23.3204 16.9922C23.3204 17.7309 23.8321 18.0291 25.0182 18.4922L25.7062 18.7556C28.0531 19.6519 29.3703 20.5725 29.3703 22.6341C29.3703 24.8494 27.4166 26.0672 24.8011 26.0672L24.8001 26.0681Z" fill="white"/>
</svg>
