<svg width="539" height="488" viewBox="0 0 539 488" fill="none" xmlns="http://www.w3.org/2000/svg">
<path d="M270.277 469.467C273.477 477.733 278.077 482 284.077 482.267V486.267C278.744 485.867 271.611 485.667 262.677 485.667C251.211 485.667 242.677 485.867 237.077 486.267V482.267C242.144 482 245.744 481.4 247.877 480.467C250.144 479.4 251.277 477.533 251.277 474.867C251.277 472.6 250.477 469.467 248.877 465.467L236.677 432.667H188.277L180.077 453.867C177.411 461.067 176.077 466.533 176.077 470.267C176.077 474.4 177.477 477.4 180.277 479.267C183.211 481.133 187.611 482.133 193.477 482.267V486.267C185.877 485.867 178.211 485.667 170.477 485.667C164.477 485.667 159.477 485.867 155.477 486.267V482.267C162.144 480.667 167.411 474.867 171.277 464.867L218.277 343.667H221.477L270.277 469.467ZM235.077 428.667L212.677 368.867L189.877 428.667H235.077Z" fill="white"/>
<path d="M394.783 470.067C397.049 473.4 399.516 476.067 402.183 478.067C404.983 479.933 408.383 481.333 412.383 482.267V486.267C405.983 485.867 397.983 485.667 388.383 485.667C381.183 485.667 374.316 485.867 367.783 486.267V482.267C370.983 482.133 373.316 481.733 374.783 481.067C376.249 480.4 376.983 479.4 376.983 478.067C376.983 476.733 376.316 475.133 374.983 473.267L345.783 429.267C341.916 423.4 338.649 419.6 335.983 417.867C333.316 416 329.583 414.933 324.783 414.667V465.067C324.783 470.133 325.183 473.8 325.983 476.067C326.783 478.333 328.249 479.867 330.383 480.667C332.649 481.467 336.183 482 340.983 482.267V486.267C334.849 485.867 326.383 485.667 315.583 485.667C304.116 485.667 295.583 485.867 289.983 486.267V482.267C294.783 482 298.249 481.467 300.383 480.667C302.649 479.867 304.183 478.333 304.983 476.067C305.783 473.8 306.183 470.133 306.183 465.067V365.867C306.183 360.8 305.783 357.133 304.983 354.867C304.183 352.6 302.649 351.067 300.383 350.267C298.249 349.467 294.783 348.933 289.983 348.667V344.667C295.583 345.067 304.116 345.267 315.583 345.267C326.249 345.267 334.716 345.067 340.983 344.667V348.667C336.183 348.933 332.649 349.467 330.383 350.267C328.249 351.067 326.783 352.6 325.983 354.867C325.183 357.133 324.783 360.8 324.783 365.867V410.667C334.516 410.267 342.116 406.533 347.583 399.467L366.783 375.067C373.583 366.667 376.983 360.267 376.983 355.867C376.983 351.2 372.849 348.8 364.583 348.667V344.667C372.183 345.067 379.849 345.267 387.583 345.267C394.916 345.267 400.583 345.067 404.583 344.667V348.667C400.183 349.333 396.049 350.8 392.183 353.067C388.316 355.2 384.583 358.6 380.983 363.267L348.383 405.067L394.783 470.067Z" fill="white"/>
<path d="M524.766 469.467C527.966 477.733 532.566 482 538.566 482.267V486.267C533.232 485.867 526.099 485.667 517.166 485.667C505.699 485.667 497.166 485.867 491.566 486.267V482.267C496.632 482 500.232 481.4 502.366 480.467C504.632 479.4 505.766 477.533 505.766 474.867C505.766 472.6 504.966 469.467 503.366 465.467L491.166 432.667H442.766L434.566 453.867C431.899 461.067 430.566 466.533 430.566 470.267C430.566 474.4 431.966 477.4 434.766 479.267C437.699 481.133 442.099 482.133 447.966 482.267V486.267C440.366 485.867 432.699 485.667 424.966 485.667C418.966 485.667 413.966 485.867 409.966 486.267V482.267C416.632 480.667 421.899 474.867 425.766 464.867L472.766 343.667H475.966L524.766 469.467ZM489.566 428.667L467.166 368.867L444.366 428.667H489.566Z" fill="white"/>
<path d="M168.494 345.267C174.494 345.267 179.494 345.067 183.494 344.667V348.667C176.028 350.4 170.761 356.2 167.694 366.067L129.894 487.267H128.294H126.694L91.8943 384.267L60.0943 487.267H58.4943H56.8943L14.4943 361.467C11.6943 353.2 7.09428 348.933 0.694276 348.667V344.667C6.16094 345.067 13.2943 345.267 22.0943 345.267C31.6943 345.267 38.8943 345.067 43.6943 344.667V348.667C40.0943 348.933 37.5609 349.6 36.0943 350.667C34.6276 351.733 33.8943 353.4 33.8943 355.667C33.8943 357.8 34.6276 361.067 36.0943 365.467L65.2943 454.667L89.6943 377.267L84.2943 361.467C81.6276 353.2 77.6943 348.933 72.4943 348.667V344.667C77.2943 345.067 83.7609 345.267 91.8943 345.267C103.361 345.267 111.894 345.067 117.494 344.667V348.667C112.428 348.933 108.894 349.533 106.894 350.467C104.894 351.267 103.894 353.067 103.894 355.867C103.894 358.267 104.561 361.467 105.894 365.467L134.694 454.467L159.294 377.067C161.428 370.533 162.494 365.133 162.494 360.867C162.494 356.467 161.161 353.4 158.494 351.667C155.828 349.8 151.494 348.8 145.494 348.667V344.667C153.094 345.067 160.761 345.267 168.494 345.267Z" fill="white"/>
<path d="M143.247 190.533L63.4466 323.533H102.647C110.913 323.533 117.18 322.399 121.447 320.133C125.847 317.733 129.047 313.933 131.047 308.733C133.047 303.533 134.513 295.999 135.447 286.133H140.047C139.647 290.266 139.447 295.733 139.447 302.533C139.447 310.133 139.913 318.666 140.847 328.133C130.98 327.733 114.38 327.533 91.0466 327.533C68.2466 327.533 51.78 327.733 41.6466 328.133V324.133L122.047 191.133H83.0466C74.78 191.133 68.4466 192.333 64.0466 194.733C59.78 196.999 56.6466 200.733 54.6466 205.933C52.6466 211.133 51.18 218.666 50.2466 228.533H45.6466C46.0466 224.266 46.2466 218.799 46.2466 212.133C46.2466 204.533 45.78 195.999 44.8466 186.533C54.7133 186.933 71.3133 187.133 94.6466 187.133C117.313 187.133 133.513 186.933 143.247 186.533V190.533Z" fill="white"/>
<path d="M465.088 186.533C488.688 186.533 506.355 192.466 518.088 204.333C529.822 216.066 535.688 233.199 535.688 255.733C535.688 270.266 532.822 282.999 527.088 293.933C521.355 304.866 513.022 313.333 502.088 319.333C491.288 325.199 478.355 328.133 463.288 328.133L451.688 327.933C444.222 327.666 438.755 327.533 435.288 327.533C424.355 327.533 416.088 327.733 410.488 328.133V324.133C415.288 323.866 418.755 323.333 420.888 322.533C423.155 321.733 424.688 320.199 425.488 317.933C426.288 315.666 426.688 311.999 426.688 306.933V207.733C426.688 202.666 426.288 198.999 425.488 196.733C424.688 194.466 423.155 192.933 420.888 192.133C418.755 191.333 415.288 190.799 410.488 190.533V186.533C415.155 186.933 421.622 187.133 429.888 187.133L446.888 186.933C455.955 186.666 462.022 186.533 465.088 186.533ZM460.088 190.133C455.955 190.133 452.822 190.599 450.688 191.533C448.688 192.466 447.288 194.133 446.488 196.533C445.688 198.933 445.288 202.533 445.288 207.333V307.333C445.288 312.133 445.688 315.733 446.488 318.133C447.288 320.533 448.688 322.199 450.688 323.133C452.822 324.066 456.022 324.533 460.288 324.533C474.422 324.533 485.555 321.999 493.688 316.933C501.822 311.733 507.488 304.199 510.688 294.333C514.022 284.466 515.688 271.866 515.688 256.533C515.688 241.199 513.888 228.733 510.288 219.133C506.688 209.399 500.822 202.133 492.688 197.333C484.688 192.533 473.822 190.133 460.088 190.133Z" fill="white"/>
<path d="M499.867 32.4C495.067 32.6667 491.534 33.2 489.267 34C487.134 34.8 485.667 36.3333 484.867 38.6C484.067 40.8667 483.667 44.5333 483.667 49.6V148.8C483.667 153.867 484.067 157.533 484.867 159.8C485.667 162.067 487.134 163.6 489.267 164.4C491.534 165.2 495.067 165.733 499.867 166V170C493.734 169.6 485.267 169.4 474.467 169.4C463.001 169.4 454.467 169.6 448.867 170V166C453.667 165.733 457.134 165.2 459.267 164.4C461.534 163.6 463.067 162.067 463.867 159.8C464.667 157.533 465.067 153.867 465.067 148.8V49.6C465.067 44.5333 464.667 40.8667 463.867 38.6C463.067 36.3333 461.534 34.8 459.267 34C457.134 33.2 453.667 32.6667 448.867 32.4V28.4C454.467 28.8 463.001 29 474.467 29C485.134 29 493.601 28.8 499.867 28.4V32.4Z" fill="white"/>
<path d="M422.983 29C428.983 29 433.983 28.8 437.983 28.4V32.4C430.516 34.1333 425.249 39.9333 422.183 49.8L384.383 171H382.783H381.183L346.383 68L314.583 171H312.983H311.383L268.983 45.2C266.183 36.9333 261.583 32.6667 255.183 32.4V28.4C260.649 28.8 267.783 29 276.583 29C286.183 29 293.383 28.8 298.183 28.4V32.4C294.583 32.6667 292.049 33.3333 290.583 34.4C289.116 35.4667 288.383 37.1333 288.383 39.4C288.383 41.5333 289.116 44.8 290.583 49.2L319.783 138.4L344.183 61L338.783 45.2C336.116 36.9333 332.183 32.6667 326.983 32.4V28.4C331.783 28.8 338.249 29 346.383 29C357.849 29 366.383 28.8 371.983 28.4V32.4C366.916 32.6667 363.383 33.2667 361.383 34.2C359.383 35 358.383 36.8 358.383 39.6C358.383 42 359.049 45.2 360.383 49.2L389.183 138.2L413.783 60.8C415.916 54.2667 416.983 48.8667 416.983 44.6C416.983 40.2 415.649 37.1333 412.983 35.4C410.316 33.5333 405.983 32.5333 399.983 32.4V28.4C407.583 28.8 415.249 29 422.983 29Z" fill="white"/>
<path d="M270.277 153.2C273.477 161.467 278.077 165.733 284.077 166V170C278.744 169.6 271.611 169.4 262.677 169.4C251.211 169.4 242.677 169.6 237.077 170V166C242.144 165.733 245.744 165.133 247.877 164.2C250.144 163.133 251.277 161.267 251.277 158.6C251.277 156.333 250.477 153.2 248.877 149.2L236.677 116.4H188.277L180.077 137.6C177.411 144.8 176.077 150.267 176.077 154C176.077 158.133 177.477 161.133 180.277 163C183.211 164.867 187.611 165.867 193.477 166V170C185.877 169.6 178.211 169.4 170.477 169.4C164.477 169.4 159.477 169.6 155.477 170V166C162.144 164.4 167.411 158.6 171.277 148.6L218.277 27.4H221.477L270.277 153.2ZM235.077 112.4L212.677 52.6L189.877 112.4H235.077Z" fill="white"/>
<path d="M83.356 28.4C106.956 28.4 124.623 34.3333 136.356 46.2C148.089 57.9333 153.956 75.0667 153.956 97.6C153.956 112.133 151.089 124.867 145.356 135.8C139.623 146.733 131.289 155.2 120.356 161.2C109.556 167.067 96.6227 170 81.556 170L69.956 169.8C62.4893 169.533 57.0227 169.4 53.556 169.4C42.6227 169.4 34.356 169.6 28.756 170V166C33.556 165.733 37.0227 165.2 39.156 164.4C41.4227 163.6 42.956 162.067 43.756 159.8C44.556 157.533 44.956 153.867 44.956 148.8L44.956 49.6C44.956 44.5333 44.556 40.8667 43.756 38.6C42.956 36.3333 41.4227 34.8 39.156 34C37.0227 33.2 33.556 32.6667 28.756 32.4V28.4C33.4227 28.8 39.8893 29 48.156 29L65.156 28.8C74.2227 28.5333 80.2893 28.4 83.356 28.4ZM78.356 32C74.2227 32 71.0893 32.4667 68.956 33.4C66.956 34.3333 65.556 36 64.756 38.4C63.956 40.8 63.556 44.4 63.556 49.2L63.556 149.2C63.556 154 63.956 157.6 64.756 160C65.556 162.4 66.956 164.067 68.956 165C71.0893 165.933 74.2893 166.4 78.556 166.4C92.6893 166.4 103.823 163.867 111.956 158.8C120.089 153.6 125.756 146.067 128.956 136.2C132.289 126.333 133.956 113.733 133.956 98.4C133.956 83.0667 132.156 70.6 128.556 61C124.956 51.2667 119.089 44 110.956 39.2C102.956 34.4 92.0893 32 78.356 32Z" fill="white"/>
</svg>
