<svg width="34" height="30" viewBox="0 0 34 30" fill="none" xmlns="http://www.w3.org/2000/svg">
<g clip-path="url(#clip0)">
<path d="M21.1931 24.2925L22.0835 22.935C22.0835 22.935 20.0626 23.6728 16.6879 23.6728C13.3069 23.6728 11.3186 22.9641 11.3186 22.9641L12.3128 24.4444L12.662 29.1019C12.662 29.6109 14.4962 30.0009 16.7687 30.0009C19.0349 30.0009 20.8764 29.6109 20.8764 29.1019L21.1921 24.3122L21.1931 24.2925ZM22.052 15.4837C20.9813 15.5428 20.4402 16.6116 19.899 17.7384C19.7029 18.15 19.0213 19.9125 18.5777 19.6922C18.1299 19.4775 19.1513 18.0319 19.4408 17.1722C19.1083 17.3869 17.896 18.2325 17.5835 17.4412C17.0812 17.8322 16.0052 18.0422 16.1248 17.0259C15.8574 17.4609 15.2565 18.0562 14.536 17.7975C13.5911 17.475 15.0866 14.7797 15.4589 14.9128C15.829 15.0637 15.3823 15.6637 15.2669 15.9037C15.0037 16.4316 14.7101 17.1047 14.9062 17.2312C15.2449 17.475 16.173 16.3575 16.195 16.3322C16.3639 16.1269 16.862 14.7994 17.2605 14.9512C17.659 15.1172 16.2664 16.8797 16.7855 17.2312C16.8893 17.31 17.3213 17.1975 17.5825 16.9341C17.7461 16.7878 17.6915 16.4119 18.2494 15.2156C18.8168 14.0147 19.3191 12.5203 19.7019 12.6319C20.0889 12.7444 19.7732 13.5122 19.6306 13.8094C18.9804 15.1566 17.8604 17.3644 18.3847 17.1984C18.9091 17.0269 19.1828 17.0269 19.7071 16.4859C20.2315 15.9431 20.1885 15.045 20.5419 15.0647C20.8817 15.0834 20.8366 15.3825 20.7558 15.5869C21.0883 15.2494 22.3614 14.5031 22.6561 15.2306C23.0168 16.0894 20.8366 17.3494 21.3777 17.2706C21.902 17.2172 22.7588 16.7297 23.1427 16.2797L24.1484 8.15437C24.1484 8.15437 23.1206 8.90719 16.6481 8.90719C10.1808 8.90719 9.25792 8.175 9.25792 8.175L10.1147 15.5878C10.5793 14.43 11.6668 12.0712 13.3657 12.1641C14.1406 12.2044 15.1831 13.5516 14.2833 13.5853C13.9057 13.605 13.8627 12.9112 13.4265 12.8194C13.092 12.7659 12.6505 12.9909 12.361 13.2544C11.7937 13.7569 10.5363 15.7584 10.7051 16.7541C10.9138 18.0244 12.6714 16.32 12.9661 15.8166C13.1748 15.4603 13.3216 14.3916 13.7589 14.5041C14.2235 14.6156 13.7201 15.7237 13.3814 16.6762C13.0049 17.7647 12.814 18.9028 12.361 18.7716C11.8964 18.6394 12.6504 17.2378 12.6075 16.9941C12.1701 17.37 11.3731 18.2681 10.3297 17.8191L10.8488 22.4428C10.8488 22.4428 12.274 23.4337 16.5453 23.4337C20.8166 23.4337 22.3016 22.4428 22.3016 22.4428L22.9738 17.0869C22.4274 17.5753 20.7118 18.4144 20.608 17.4628C20.5272 16.695 22.4704 15.5925 21.9681 15.5681L22.052 15.4837ZM24.2585 0.835311L20.5387 4.33687L19.855 6.71437C22.4883 6.86062 24.3182 7.19812 24.3182 7.57781C24.3182 8.10562 20.9425 8.52562 16.7802 8.52562C12.6179 8.52562 9.24219 8.09719 9.24219 7.57406C9.24219 7.05187 12.6179 6.61687 16.7802 6.61687C17.3706 6.61687 17.96 6.61687 18.5504 6.63656L19.3306 3.79406L23.279 0.0487482C23.3786 -0.0637518 23.6733 0.0290606 23.946 0.235311C24.2134 0.425623 24.3612 0.663748 24.2784 0.776248V0.814686L24.2585 0.835311ZM18.8944 8.08125C18.8944 8.08125 18.1613 8.08125 18.0418 7.97906C18.0102 7.94838 17.9926 7.90825 17.9925 7.86656C17.9925 7.7925 18.047 7.75406 18.1184 7.73062L18.1781 7.82344C18.1498 7.83375 18.1404 7.84219 18.1351 7.8525C18.1351 7.90594 18.5714 7.94156 18.9101 7.93594C19.2447 7.93125 19.6536 7.90594 19.6536 7.85719C19.6536 7.84219 19.6201 7.82812 19.5656 7.81312L19.6316 7.72594C19.7197 7.74937 19.7952 7.79812 19.7952 7.87687C19.7952 8.01281 19.5991 8.03812 19.4733 8.05219C19.3254 8.07187 18.8996 8.08219 18.8996 8.08219L18.8944 8.08125Z" fill="white"/>
</g>
<defs>
<clipPath id="clip0">
<rect width="33.5583" height="30" fill="white"/>
</clipPath>
</defs>
</svg>
