<svg width="34" height="30" viewBox="0 0 34 30" fill="none" xmlns="http://www.w3.org/2000/svg">
<path d="M24.1683 11.8997C22.4043 4.94623 18.2368 2.66623 17.789 1.79248C17.2972 1.17279 16.7676 0.000915527 16.7676 0.000915527C16.7624 0.0252905 16.7624 0.0402905 16.7571 0.0646655V0.0796655C16.7571 0.099353 16.7519 0.108728 16.7519 0.128416V0.148103H16.7466V0.210916H16.7414C16.7414 0.220291 16.7414 0.235291 16.7361 0.239978V0.269041C16.7361 0.278416 16.7361 0.288728 16.7309 0.293416V0.317791C16.7309 0.332791 16.7309 0.346853 16.7257 0.357166V0.361853C16.7247 0.383378 16.7212 0.404751 16.7152 0.425603V0.434978C16.7099 0.439666 16.7099 0.444353 16.7099 0.449978V0.469666H16.7047V0.498728H16.6994V0.518416H16.6889V0.547478H16.6837V0.571853H16.6785V0.591541H16.6732V0.611228H16.668V0.630916H16.6627V0.650603H16.6575V0.665603H16.6522V0.685291H16.647V0.704978H16.6418C16.6365 0.704978 16.6365 0.709666 16.6365 0.709666V0.719041L16.6313 0.728416C16.6313 0.737791 16.626 0.748103 16.6208 0.757478C16.6155 0.762166 16.6155 0.762166 16.6155 0.766853V0.776228H16.6103V0.785603H16.5998V0.809978H16.5893V0.824978H16.5841V0.829666H16.5788V0.839041H16.5736V0.854041H16.5683V0.863416H16.5579V0.878416H16.5526V0.887791H16.5474V0.897166H16.5421V0.912166H16.5369V0.92154H16.5316V0.926228H16.5264V0.935603H16.5159V0.950603H16.5107V0.955291H16.5054V0.964666H16.5002V0.979665H16.4949V0.984353H16.4897V0.993728H16.4845V0.998416H16.4792V1.01342H16.4687V1.0181H16.4635V1.02748H16.4582V1.03217H16.453V1.04154H16.4477V1.05092C16.4425 1.05092 16.4425 1.0556 16.4425 1.0556V1.06029H16.4373L16.4205 1.08467C16.4205 1.08467 16.41 1.09404 16.41 1.09967C16.4048 1.09967 16.4048 1.10435 16.4048 1.10435V1.10904H16.3995V1.11373H16.3943V1.1231H16.3838V1.12779H16.3785V1.13248H16.3733V1.14654H16.368V1.15123H16.3628V1.15592H16.3576V1.16529H16.3523V1.15592H16.3418V1.1606H16.3366V1.16998H16.3313V1.17935H16.3261V1.18404H16.3209V1.18873H16.3156V1.19342H16.3104V1.20279H16.2999V1.20748H16.2946V1.21685H16.2894V1.22154H16.2842V1.22623H16.2789V1.24123H16.2737V1.24592H16.2684V1.2506H16.2632V1.25529H16.2579V1.25998H16.2474V1.26935H16.2422V1.27404H16.237V1.27873H16.2317V1.2881H16.2265V1.29279H16.216V1.29748H16.2107V1.30217H16.2055V1.31154H16.2003V1.32092H16.195V1.3256H16.1898V1.33029H16.1793V1.33498H16.174V1.33967H16.1688V1.34904H16.1636V1.35373H16.1583V1.3631H16.1531V1.36779H16.1478V1.37248H16.1426V1.37717H16.1373V1.38185H16.1268V1.38654C16.1216 1.38654 16.1216 1.39123 16.1216 1.39123L16.1164 1.39592L16.1111 1.4006V1.40998H16.1059V1.41467H16.1006V1.41935H16.0954V1.42404H16.0901L16.0797 1.43342V1.4381C16.0692 1.44279 16.0692 1.44748 16.0576 1.45779C16.0576 1.45779 16.0471 1.46717 16.0409 1.46717C16.0241 1.47654 16.0031 1.49623 15.9863 1.51123C15.9758 1.51592 15.9643 1.52623 15.9538 1.53092C15.9318 1.5506 15.9098 1.56467 15.8877 1.57967C15.8552 1.60873 15.8217 1.62842 15.7839 1.65748H15.7787L15.5217 1.8581H15.5165C15.2816 2.04373 15.0026 2.28279 14.6859 2.56592L14.6587 2.59029C12.7574 4.3481 9.75916 8.01466 9.4477 13.9378C9.41519 14.4262 9.42043 14.9044 9.45294 15.3684V15.3778C9.60605 17.7122 10.4251 19.7044 11.4518 21.3253C11.8555 21.9703 12.2981 22.5562 12.7458 23.0831C14.2864 24.9 15.8594 25.979 16.2579 26.2425C16.8756 27.5165 16.82 29.714 16.82 29.714L17.7209 29.9822C17.7209 29.9822 17.5352 27.8578 17.7922 26.8275C17.874 26.5097 18.0596 26.2369 18.2788 26.0025C18.4319 25.9097 18.8692 25.6265 19.3935 25.1972C19.4208 25.1728 19.4376 25.1531 19.4596 25.1287C21.5843 23.3559 25.5557 18.9909 24.1955 11.8819L24.1683 11.8997Z" fill="white"/>
</svg>
