<svg width="34" height="35" viewBox="0 0 34 35" fill="none" xmlns="http://www.w3.org/2000/svg">
<g clip-path="url(#clip0)">
<path d="M16.8283 34.0179C16.3264 34.0179 15.817 33.8974 15.3751 33.6697L10.7533 31.2255C10.0642 30.8773 10.4013 30.7567 10.626 30.6898C11.5473 30.4018 11.7346 30.3416 12.7159 29.8393C12.8208 29.7858 12.9556 29.8058 13.0605 29.8661L16.611 31.7478C16.7384 31.8148 16.9182 31.8148 17.038 31.7478L30.8733 24.6094C31.0006 24.5424 31.083 24.4085 31.083 24.2746V9.9978C31.083 9.85718 31.0006 9.72995 30.8658 9.65629L17.038 2.52459C16.9107 2.45762 16.7384 2.45762 16.611 2.52459L2.79072 9.66298C2.65589 9.72995 2.57349 9.86387 2.57349 10.0045V24.2746C2.57349 24.4085 2.65589 24.5424 2.79072 24.6027L6.58101 26.5581C8.64095 27.4755 9.89938 26.3974 9.89938 25.3058V11.2166C9.89938 11.0157 10.0792 10.8616 10.3039 10.8616H12.0567C12.2739 10.8616 12.4612 11.0157 12.4612 11.2166V25.3125C12.4612 27.7634 10.9631 29.1697 8.36379 29.1697C7.56229 29.1697 6.93307 29.1697 5.18025 28.3929L1.55476 26.5246C0.655873 26.0625 0.101562 25.1987 0.101562 24.2679V9.9978C0.101562 9.0737 0.655873 8.20316 1.55476 7.74111L15.3751 0.602713C16.2515 0.160749 17.4125 0.160749 18.2815 0.602713L32.1168 7.7478C33.0156 8.20986 33.57 9.0737 33.57 10.0045V24.2746C33.57 25.1987 33.0156 26.0625 32.1168 26.5313L18.2815 33.6697C17.8395 33.8974 17.3376 34.0179 16.8283 34.0179ZM27.9969 19.9487C27.9969 17.2768 25.9744 16.567 21.7272 16.0648C17.4275 15.5558 16.9931 15.2947 16.9931 14.3974C16.9931 13.6541 17.3601 12.663 20.5436 12.663C23.3826 12.663 24.4313 13.2121 24.8658 14.9264C24.9032 15.0871 25.068 15.2076 25.2553 15.2076H27.0531C27.1654 15.2076 27.2703 15.1674 27.3452 15.0938C27.4201 15.0201 27.4576 14.9197 27.4501 14.8192C27.1729 11.8661 24.9781 10.4933 20.5436 10.4933C16.5961 10.4933 14.244 11.9799 14.244 14.4777C14.244 17.1831 16.5886 17.9331 20.3714 18.2679C24.9032 18.663 25.2553 19.259 25.2553 20.0558C25.2553 21.4353 24.0118 22.0246 21.098 22.0246C17.435 22.0246 16.6335 21.2009 16.3638 19.5737C16.3339 19.3996 16.1691 19.2724 15.9668 19.2724H14.1766C13.9518 19.2724 13.7796 19.4331 13.7796 19.6273C13.7796 21.7099 15.0455 24.1942 21.1055 24.1942C25.48 24.1875 27.9969 22.6407 27.9969 19.9487Z" fill="white"/>
</g>
<defs>
<clipPath id="clip0">
<rect width="33.5583" height="34.2857" fill="white" transform="translate(0.0507812)"/>
</clipPath>
</defs>
</svg>
