<svg width="34" height="30" viewBox="0 0 34 30" fill="none" xmlns="http://www.w3.org/2000/svg">
<g clip-path="url(#clip0)">
<path d="M28.1683 7.1788C29.9229 7.95206 33.9308 11.8638 33.8013 12.1219C33.6699 12.3795 31.7573 13.808 31.181 14.3701C29.9295 16.9376 28.8009 18.7762 28.3955 16.7288C27.9348 19.1912 26.9484 18.9756 26.5632 20.1785C26.0011 22.6535 24.3839 22.7379 23.6496 23.1999C22.9762 23.8019 22.0115 23.4546 21.2669 23.7961C19.3756 24.427 14.9079 24.5385 13.1217 23.8193C12.1662 23.451 11.6878 24.024 8.99079 22.3722C7.55394 21.095 7.96012 20.514 7.46277 19.6558C6.64164 18.3899 6.35083 19.2161 5.71781 16.3878C5.52609 18.6712 4.14771 17.4495 2.87735 14.3567C2.87735 14.3567 0.378763 12.3766 0.249249 12.1219C0.117834 11.8638 4.12569 7.95206 5.88226 7.1788C10.8624 5.16025 22.6789 5.21357 28.1684 7.1788H28.1683ZM19.6575 13.9805C22.348 14.7952 24.8905 17.3828 24.4706 19.7571C24.4706 20.99 24.3476 21.8235 24.1468 22.3849C26.4441 21.0374 25.4376 20.6042 26.3515 19.3085C27.214 17.9927 27.3872 18.4744 27.8329 16.6934C27.5661 14.9107 27.3084 11.7515 26.9899 10.808C26.7115 9.99763 25.3647 8.31329 24.4958 7.2824C20.2587 5.82031 11.8691 6.28906 9.71662 7.22451C8.84902 8.24902 7.44396 9.9913 7.15911 10.8248C6.858 11.7185 6.58449 14.7911 6.33195 16.6086C6.54012 18.3374 7.99885 19.1018 8.21639 20.017C8.44927 21.4903 9.20171 21.9916 10.2456 22.4949C10.0125 21.9219 9.87654 21.0537 9.87654 19.7224C9.44133 16.975 12.4275 14.637 14.8461 13.9631C15.5148 12.3763 19.1323 12.5229 19.6574 13.9805H19.6575ZM20.126 20.6019C20.126 18.9233 18.5871 17.5281 17.4346 17.4441L17.5025 14.9755C19.729 14.849 19.4705 13.3916 17.2221 13.2894C15.4944 13.3027 14.2817 14.7246 16.9326 14.9726L16.9306 17.4355C15.7781 17.4355 14.2606 18.8584 14.2606 20.5682C14.4401 18.8524 15.9351 17.9649 17.3011 18.0018C18.6318 18.0378 19.8329 18.9541 20.126 20.6019ZM11.1417 12.3291C11.1417 11.9163 10.6384 11.6568 10.2379 11.8633C9.83728 12.0697 9.83728 12.5886 10.2379 12.795C10.6384 13.0014 11.1417 12.742 11.1417 12.3291ZM8.78229 15.027C7.2491 14.2368 7.2491 12.2506 8.78229 11.4604C10.3156 10.6702 12.2425 11.6633 12.2425 13.2437C12.2425 14.8241 10.3155 15.8171 8.78229 15.027ZM23.2158 15.027C21.6826 14.2368 21.6826 12.2506 23.2158 11.4604C24.749 10.6702 26.6759 11.6633 26.6759 13.2437C26.6759 14.8241 24.749 15.8171 23.2158 15.027ZM24.3709 12.3291C24.3709 11.9163 23.8675 11.6568 23.4671 11.8633C23.0666 12.0698 23.0665 12.5886 23.4671 12.795C23.8677 13.0013 24.3709 12.742 24.3709 12.3291Z" fill="white"/>
</g>
<defs>
<clipPath id="clip0">
<rect width="33.5583" height="30" fill="white" transform="translate(0.246094)"/>
</clipPath>
</defs>
</svg>
