<svg width="34" height="30" viewBox="0 0 34 30" fill="none" xmlns="http://www.w3.org/2000/svg">
<g clip-path="url(#clip0)">
<path d="M15.9249 20.7619C15.9092 20.79 15.8935 20.8125 15.9249 20.7619V20.7619ZM28.9875 16.6838C27.9325 16.6838 26.8922 16.8994 25.9463 17.3166C25.6369 16.7588 25.3171 16.2713 25.2646 15.9056C25.2017 15.4791 25.1335 15.226 25.2069 14.7197C25.2804 14.2135 25.6107 13.4963 25.6055 13.4447C25.6002 13.3931 25.532 13.1353 24.8556 13.1306C24.1792 13.126 23.5972 13.2478 23.529 13.4072C23.4093 13.6984 23.3164 13.9978 23.2511 14.3025C23.1305 14.851 21.8994 16.8103 21.202 17.8322C20.9713 17.4338 20.7773 17.0822 20.7353 16.801C20.6724 16.3744 20.6042 16.1213 20.6776 15.615C20.751 15.1088 21.0814 14.3916 21.0761 14.34C21.0709 14.2885 21.0027 14.0306 20.3274 14.026C19.652 14.0213 19.0689 14.1431 19.0008 14.3025C18.9326 14.4619 18.8592 14.8369 18.7229 15.1978C18.5865 15.5588 16.9453 18.8213 16.5164 19.6697C16.2962 20.101 16.1074 20.4478 15.9711 20.6822C15.9501 20.7197 15.9344 20.7431 15.9239 20.7619C15.9396 20.7385 15.9501 20.715 15.9501 20.7244C15.8348 20.926 15.7666 21.0385 15.7666 21.0385V21.0431C15.6774 21.1931 15.5778 21.3291 15.5306 21.3291C15.4992 21.3291 15.431 20.9353 15.5464 20.3963C15.7928 19.2619 16.3748 17.4994 16.3696 17.4385C16.3643 17.4056 16.4797 17.101 15.9868 16.9369C15.5097 16.7822 15.3366 17.04 15.2947 17.04C15.2527 17.04 15.2213 17.1338 15.2213 17.1338C15.2213 17.1338 15.7509 15.1463 14.204 15.1463C13.2392 15.1463 11.8969 16.0931 11.2373 16.951C10.823 17.1525 9.9264 17.5885 8.98257 18.0525L7.89717 18.5869C7.87095 18.5635 7.84998 18.54 7.82376 18.5166C5.94659 16.726 2.4817 15.4603 2.62852 13.0556C2.68095 12.1791 3.02178 9.87752 9.29194 7.08377C14.4305 4.79626 18.5383 5.42439 19.2462 6.82126C20.2634 8.81345 17.0491 12.5213 11.7134 13.0556C9.6789 13.2572 8.61028 12.5541 8.34286 12.2916C8.06496 12.015 8.02301 12.001 7.91814 12.0525C7.74511 12.1369 7.85522 12.3806 7.91814 12.526C8.07545 12.8963 8.73088 13.5525 9.84774 13.8806C10.8283 14.1666 13.213 14.326 16.0959 13.3275C19.3353 12.2119 21.8574 9.10408 21.117 6.50251C20.3641 3.85876 15.4604 2.99158 10.8241 4.46345C8.06077 5.34001 5.07303 6.71814 2.92425 8.51345C0.370676 10.651 -0.0372667 12.5119 0.130525 13.29C0.728282 16.051 4.98494 17.851 6.68802 19.1822L6.45207 19.2994C5.59738 19.6791 2.35271 21.1978 1.53997 22.801C0.622363 24.6197 1.69203 25.9228 2.39361 26.101C4.58539 26.6447 6.82855 25.665 8.03455 24.0572C9.24055 22.4494 9.09373 20.3494 8.53792 19.3931C8.53268 19.3791 8.52219 19.3697 8.51695 19.3556C9.14614 19.0225 9.78066 18.6974 10.4203 18.3806C10.2106 18.8869 10.0585 19.4963 9.97988 20.3775C9.8855 21.4088 10.3627 22.7447 10.9814 23.2697C11.254 23.4994 11.5833 23.5041 11.7889 23.5041C12.5125 23.5041 12.8376 22.9697 13.1994 22.3322C13.6451 21.5541 14.0383 20.6494 14.0383 20.6494C14.0383 20.6494 13.5454 23.0963 14.893 23.0963C15.3859 23.0963 15.8788 22.5291 16.099 22.2385V22.2431C16.099 22.2431 16.1095 22.2244 16.1357 22.1869C16.1882 22.1166 16.2144 22.0744 16.2144 22.0744V22.0603C16.4136 21.7556 16.8488 21.0572 17.5043 19.9041C18.3537 18.4135 19.1654 16.5525 19.1654 16.5525C19.2441 16.9613 19.3531 17.3653 19.4905 17.7619C19.6373 18.2072 19.9467 18.6947 20.1931 19.1681C19.9939 19.4119 19.8733 19.5525 19.8733 19.5525C19.8733 19.5563 19.8754 19.5591 19.8785 19.5619C19.7212 19.7494 19.5429 19.951 19.3594 20.1478C18.6893 20.8603 17.8912 21.676 17.7864 21.9103C17.6605 22.1869 17.692 22.3931 17.9332 22.5525C18.1115 22.6744 18.4261 22.6931 18.7564 22.6697C19.3594 22.6322 19.7841 22.501 19.9886 22.4166C20.3658 22.2958 20.7223 22.1285 21.0478 21.9197C21.7033 21.4885 22.1018 20.8697 22.0651 20.0541C22.0441 19.6041 21.8815 19.1541 21.6823 18.7322C21.74 18.6572 21.8029 18.5775 21.8606 18.4978C22.5429 17.5876 23.1577 16.6384 23.701 15.6563C23.7797 16.065 23.8877 16.4691 24.0261 16.8656C24.152 17.2453 24.3984 17.6625 24.6239 18.0703C23.6486 18.7781 23.0456 19.5985 22.8369 20.1375C22.4489 21.136 22.753 21.586 23.3245 21.6891C23.5815 21.736 23.9485 21.6281 24.2212 21.525C24.626 21.4041 25.0077 21.2288 25.3527 21.0047C26.0082 20.5735 26.6426 19.9688 26.5996 19.1485C26.5839 18.7781 26.4685 18.4078 26.3165 18.0516C27.1397 17.7422 28.2094 17.5735 29.5727 17.7141C32.4922 18.0188 33.0638 19.65 32.9537 20.3297C32.8436 21.0094 32.2301 21.3891 32.0256 21.5016C31.8211 21.6141 31.7582 21.6563 31.7739 21.7406C31.8001 21.8625 31.8945 21.8578 32.0675 21.8297C32.3087 21.7922 33.5986 21.2766 33.6563 20.0156C33.7402 18.4219 32.0256 16.6688 28.9896 16.6828L28.9875 16.6838ZM6.48353 23.4666C5.51873 24.4088 4.16696 24.765 3.58493 24.465C2.96096 24.1406 3.2074 22.7541 4.39662 21.75C5.12022 21.1406 6.05356 20.5781 6.67229 20.2313C6.81387 20.1563 7.01836 20.0438 7.27005 19.9078C7.2905 19.8961 7.31149 19.8852 7.33297 19.875C7.38016 19.8469 7.4326 19.8235 7.48503 19.7953C7.91919 21.2203 7.50076 22.4766 6.48353 23.4656V23.4666ZM13.5287 19.1822C13.1931 19.9181 12.4863 21.7931 12.0553 21.6947C11.6882 21.6103 11.4627 20.1806 11.9818 18.7744C12.244 18.0666 12.7998 17.2228 13.1302 16.8947C13.6598 16.365 14.2418 16.1963 14.3781 16.4072C14.5616 16.6838 13.7384 18.7228 13.5287 19.1822ZM19.3489 21.6666C19.2074 21.7322 19.0763 21.7744 19.0133 21.7416C18.9662 21.7181 19.071 21.6291 19.071 21.6291C19.071 21.6291 19.7999 20.9306 20.0883 20.6119C20.2561 20.4244 20.4501 20.2041 20.6598 19.9603C20.6598 19.9838 20.665 20.0072 20.665 20.0353C20.6588 20.8744 19.7569 21.4416 19.3479 21.6666H19.3489ZM23.8374 20.7525C23.7325 20.6869 23.7482 20.4666 24.0995 19.7822C24.2359 19.515 24.5505 19.065 25.0958 18.6338C25.1577 18.7969 25.1912 18.9675 25.1954 19.14C25.1902 20.1947 24.346 20.5885 23.8374 20.7525Z" fill="white"/>
</g>
<defs>
<clipPath id="clip0">
<rect width="33.5583" height="30" fill="white" transform="translate(0.0976562)"/>
</clipPath>
</defs>
</svg>
